<svg width="1235" height="272" viewBox="0 0 1235 272" fill="none" xmlns="http://www.w3.org/2000/svg">
<path d="M694.421 70.774C695.326 70.4128 696.119 69.8195 696.721 69.054C703.737 62.5294 712.767 58.5897 722.321 57.884C728.395 57.4313 734.499 57.6258 740.531 58.464C744.011 58.874 747.531 59.244 750.961 59.824C753.681 60.2393 756.263 61.298 758.491 62.9122C760.719 64.5263 762.529 66.6491 763.771 69.104C765.681 72.7812 766.733 76.8424 766.851 80.984C767.074 86.2515 766.59 91.5252 765.411 96.664C762.111 112.304 758.721 127.924 755.411 143.554C753.621 151.924 751.901 160.304 750.141 168.684C749.947 169.8 749.68 170.903 749.341 171.984C749.089 172.832 748.604 173.593 747.941 174.18C747.278 174.766 746.464 175.156 745.591 175.304C744.577 175.495 743.543 175.572 742.511 175.534C740.141 175.434 737.771 175.234 735.401 175.244C732.311 175.244 729.211 175.434 726.121 175.534C724.991 175.661 723.846 175.586 722.741 175.314C722.07 175.197 721.467 174.834 721.049 174.296C720.631 173.758 720.429 173.083 720.481 172.404C720.491 171.478 720.602 170.556 720.811 169.654C724.078 154.434 727.378 139.217 730.711 124.004C732.591 115.344 734.511 106.684 736.261 98.004C736.891 94.894 737.401 91.734 736.681 88.494C736.387 86.9163 735.698 85.4387 734.678 84.1991C733.659 82.9594 732.343 81.9978 730.851 81.404C728.243 80.4015 725.476 79.8732 722.681 79.844C717.729 79.5717 712.762 79.9076 707.891 80.844C704.47 81.422 701.235 82.8052 698.453 84.8794C695.671 86.9537 693.422 89.6596 691.891 92.774C689.793 96.9046 688.189 101.268 687.111 105.774C683.781 118.774 680.921 131.864 678.281 145.004C676.681 153.004 675.068 161.004 673.441 169.004C673.314 169.715 673.141 170.416 672.921 171.104C671.861 174.294 670.141 175.564 666.721 175.624C665.591 175.624 664.451 175.624 663.321 175.484C659.619 175.162 655.897 175.146 652.191 175.434C650.851 175.524 649.501 175.584 648.191 175.554C647.371 175.524 646.556 175.403 645.761 175.194C645.197 175.071 644.694 174.751 644.344 174.291C643.994 173.831 643.819 173.261 643.851 172.684C643.892 171.671 644.04 170.666 644.291 169.684C646.061 161.514 647.861 153.364 649.631 145.204C653.225 128.577 656.811 111.944 660.391 95.304C664.485 76.0973 668.591 56.9207 672.711 37.774C674.321 30.314 676.111 22.894 677.151 15.324C677.274 14.4018 677.53 13.5024 677.911 12.654C678.239 11.7737 678.82 11.0108 679.582 10.4623C680.345 9.91375 681.253 9.60452 682.191 9.57399C683.531 9.51399 684.871 9.57399 686.191 9.57399C691.141 9.84407 696.103 9.76388 701.041 9.334C701.553 9.27408 702.07 9.27408 702.581 9.334C705.341 9.694 706.271 10.824 706.301 13.664C706.185 15.6253 705.85 17.5674 705.301 19.454C701.968 35.074 698.591 50.694 695.171 66.314C694.931 67.724 694.711 69.144 694.421 70.774Z" fill="white"/>
<path d="M473.291 122.494H439.841C439.331 122.494 438.841 122.494 438.301 122.494C434.921 122.664 433.211 124.084 432.471 127.394C432.211 128.604 432.001 129.824 431.851 131.054C431.318 134.626 431.054 138.233 431.061 141.844C431.113 143.392 431.345 144.929 431.751 146.424C432.06 147.733 432.674 148.951 433.543 149.978C434.412 151.005 435.511 151.812 436.751 152.334C438.941 153.258 441.263 153.828 443.631 154.024C451.144 154.621 458.7 154.387 466.161 153.324C467.591 153.118 468.993 152.752 470.341 152.234C472.251 151.573 473.991 150.496 475.435 149.081C476.879 147.667 477.991 145.95 478.691 144.054C479.071 143.104 479.341 142.104 479.771 141.164C480.131 140.302 480.7 139.542 481.426 138.954C482.152 138.366 483.013 137.967 483.931 137.794C485.037 137.547 486.169 137.443 487.301 137.484C489.301 137.564 491.221 137.664 493.181 137.764C496.481 137.832 499.782 137.736 503.071 137.474C504.306 137.327 505.558 137.432 506.751 137.784C507.307 137.926 507.798 138.255 508.14 138.715C508.483 139.176 508.656 139.74 508.631 140.314C508.673 141.343 508.572 142.373 508.331 143.374C506.817 149.178 504.376 154.699 501.101 159.724C497.378 165.237 492.066 169.488 485.871 171.914C481.838 173.511 477.612 174.567 473.301 175.054C461.823 176.394 450.257 176.822 438.711 176.334C432.317 176.024 425.982 174.953 419.841 173.144C416.546 172.242 413.46 170.699 410.761 168.604C405.411 164.344 402.881 158.684 402.621 151.934C402.049 136.961 403.803 121.989 407.821 107.554C409.962 99.7967 412.659 92.2037 415.891 84.8339C421.471 72.0339 431.251 64.1539 444.601 60.5339C449.009 59.4579 453.503 58.7752 458.031 58.4939C466.057 57.8391 474.117 57.6988 482.161 58.0739C487.835 58.2591 493.471 59.0605 498.971 60.4639C500.366 60.8261 501.741 61.26 503.091 61.7639C506.633 62.9795 509.791 65.1068 512.249 67.9314C514.707 70.7561 516.377 74.1784 517.091 77.8539C517.545 79.8657 517.819 81.9137 517.911 83.9739C518.104 90.4749 517.58 96.9773 516.351 103.364C515.561 107.934 514.791 112.514 514.011 117.084C514.011 117.284 514.011 117.494 513.921 117.694C513.181 121.444 511.921 122.554 508.001 122.564C496.441 122.564 484.881 122.564 473.321 122.564L473.291 122.494ZM462.201 104.294H479.201C481.056 104.269 482.909 104.149 484.751 103.934C485.944 103.851 487.066 103.338 487.908 102.49C488.751 101.642 489.257 100.517 489.331 99.3239C489.774 96.0671 489.902 92.7752 489.711 89.4939C489.431 84.0739 487.871 82.2539 482.591 80.8839C473.121 78.4139 463.591 78.8839 454.091 80.5739C450.07 81.2265 446.423 83.3201 443.831 86.4639C440.371 90.6839 438.931 95.7039 438.251 100.984C438.021 102.734 438.831 103.724 440.551 104.084C441.56 104.269 442.586 104.35 443.611 104.324C449.831 104.304 456.011 104.294 462.201 104.294Z" fill="white"/>
<path d="M926.713 122.494H892.953C892.025 122.462 891.096 122.496 890.173 122.594C889.288 122.653 888.444 122.986 887.757 123.547C887.07 124.108 886.576 124.869 886.343 125.724C886.143 126.31 885.983 126.908 885.863 127.514C885.293 130.974 884.673 134.424 884.213 137.894C883.881 140.356 883.976 142.855 884.493 145.284C884.813 146.967 885.577 148.534 886.706 149.822C887.835 151.111 889.287 152.075 890.913 152.614C893.184 153.361 895.532 153.848 897.913 154.064C905.163 155.064 912.333 154.284 919.493 153.304C921.65 153.02 923.741 152.364 925.673 151.364C928.459 149.938 930.618 147.529 931.733 144.604C932.043 143.834 932.263 143.044 932.543 142.264C932.985 140.873 933.858 139.657 935.035 138.793C936.212 137.929 937.633 137.46 939.093 137.454C940.536 137.384 941.983 137.415 943.423 137.544C946.306 137.754 949.2 137.754 952.083 137.544C954.144 137.404 956.212 137.404 958.273 137.544C961.493 137.764 962.573 139.124 961.913 142.214C960.133 150.434 956.783 157.864 950.783 163.954C945.415 169.333 938.574 173 931.123 174.494C928.599 175.026 926.038 175.36 923.463 175.494C913.163 176.164 902.853 176.784 892.523 176.294C885.92 176.02 879.374 174.959 873.023 173.134C868.194 171.848 863.887 169.086 860.703 165.234C857.61 161.571 855.916 156.929 855.923 152.134C855.814 143.879 856.242 135.625 857.203 127.424C858.396 118.007 860.496 108.728 863.473 99.7145C865.648 93.3687 868.296 87.1948 871.393 81.2444C876.743 70.7645 885.283 64.3245 896.393 61.0945C901.088 59.88 905.879 59.0703 910.713 58.6744C918.416 57.8798 926.165 57.6392 933.903 57.9544C939.472 58.154 945.016 58.823 950.473 59.9544C953.512 60.5649 956.453 61.5912 959.213 63.0045C961.678 64.2181 963.865 65.9284 965.638 68.0279C967.41 70.1274 968.73 72.5707 969.513 75.2044C971.028 80.5783 971.539 86.1852 971.023 91.7444C970.463 100.524 968.753 109.114 967.023 117.744C966.9 118.454 966.709 119.151 966.453 119.824C966.205 120.565 965.737 121.213 965.112 121.681C964.487 122.149 963.733 122.416 962.953 122.444C961.953 122.514 960.883 122.524 959.853 122.524H926.713V122.494ZM916.523 104.344H936.023C936.643 104.344 937.263 104.344 937.873 104.344C940.653 104.064 941.873 102.794 942.163 99.9944C942.373 97.9445 942.593 95.8944 942.743 93.8344C942.863 92.0944 942.963 90.3344 942.933 88.5844C942.93 87.0736 942.467 85.5994 941.606 84.3579C940.745 83.1164 939.527 82.1665 938.113 81.6345C936.981 81.1363 935.797 80.7673 934.583 80.5345C926.984 79.0041 919.177 78.8146 911.513 79.9745C909.058 80.2981 906.644 80.8814 904.313 81.7145C899.978 83.2262 896.396 86.3539 894.313 90.4445C892.909 93.3189 891.968 96.3967 891.523 99.5645C891.458 100.179 891.458 100.8 891.523 101.414C891.539 101.987 891.732 102.541 892.076 103C892.42 103.458 892.897 103.799 893.443 103.974C894.523 104.325 895.66 104.464 896.793 104.384L916.523 104.344Z" fill="white"/>
<path d="M374.281 9.49481H432.201C433.337 9.46469 434.473 9.51481 435.601 9.6448C437.761 9.9548 438.671 11.1648 438.411 13.2948C438.299 14.1132 438.101 14.9176 437.821 15.6948C436.05 20.9793 434.844 26.4364 434.221 31.9748C434.151 32.4848 434.141 32.9748 434.021 33.5048C433.868 34.5903 433.362 35.5952 432.581 36.3649C431.801 37.1347 430.789 37.6265 429.701 37.7648C428.785 37.9109 427.859 37.9878 426.931 37.9948C415.161 37.9948 403.391 37.9948 391.621 37.9948C390.491 37.9948 389.351 37.9948 388.221 38.0948C387.388 38.1352 386.585 38.4152 385.907 38.9013C385.229 39.3873 384.707 40.0587 384.401 40.8348C383.955 41.8731 383.62 42.9559 383.401 44.0648C380.495 57.7848 377.598 71.5081 374.711 85.2348C372.391 96.2348 370.058 107.235 367.711 118.235C364.491 133.255 361.248 148.275 357.981 163.295C357.541 165.295 357.141 167.295 356.591 169.295C355.231 174.205 353.501 175.545 348.451 175.615C345.761 175.615 343.091 175.535 340.401 175.365C337.111 175.155 333.801 175.185 330.501 175.125C329.501 175.125 328.431 175.125 327.401 175.125C324.291 174.985 323.091 173.545 323.591 170.545C323.691 169.935 323.821 169.325 323.951 168.725C325.858 159.905 327.778 151.125 329.711 142.385C333.591 124.555 337.501 106.725 341.321 88.8748C344.241 75.2648 347.031 61.6248 349.901 48.0048C350.311 46.0848 350.841 44.1948 351.301 42.2948C351.469 41.7013 351.592 41.0964 351.671 40.4848C351.72 40.2283 351.715 39.9646 351.657 39.7101C351.599 39.4555 351.489 39.2157 351.334 39.0055C351.179 38.7953 350.983 38.6193 350.757 38.4885C350.531 38.3576 350.281 38.2746 350.021 38.2448C348.998 38.095 347.965 38.0248 346.931 38.0348C341.151 37.9848 335.371 37.9348 329.591 37.9348C323.191 37.9348 316.791 37.9948 310.391 38.0348C309.154 38.1232 307.91 38.0049 306.711 37.6848C304.951 37.1148 304.111 36.0348 304.331 34.2448C304.506 33.1221 304.77 32.0152 305.121 30.9348C306.753 25.8236 307.901 20.5706 308.551 15.2448C308.625 14.6298 308.759 14.0236 308.951 13.4348C309.154 12.3553 309.728 11.3806 310.573 10.6794C311.419 9.97823 312.483 9.59457 313.581 9.59482C314.921 9.49482 316.271 9.52481 317.581 9.52481H374.271L374.281 9.49481Z" fill="white"/>
<path d="M1023.5 176.645C1015.27 176.375 1007.62 176.424 1000.02 175.575C996.307 175.262 992.685 174.244 989.352 172.575C982.112 168.715 977.842 162.814 976.792 154.574C976.34 150.151 976.879 145.683 978.372 141.494C978.681 140.279 979.409 139.211 980.428 138.48C981.447 137.748 982.691 137.399 983.942 137.494H1003.15C1003.56 137.49 1003.98 137.52 1004.38 137.584C1005.17 137.605 1005.92 137.927 1006.48 138.486C1007.04 139.044 1007.36 139.795 1007.38 140.584C1007.62 142.224 1007.8 143.864 1007.88 145.514C1008 147.161 1008.27 148.794 1008.67 150.394C1008.93 151.833 1009.66 153.146 1010.75 154.125C1011.83 155.104 1013.21 155.695 1014.67 155.804C1016.92 156.117 1019.18 156.291 1021.45 156.324C1024.12 156.438 1026.8 156.348 1029.45 156.054C1031.51 155.914 1033.58 155.914 1035.64 156.054C1038.74 156.197 1041.84 155.911 1044.86 155.204C1050.95 153.504 1055.28 149.904 1057.13 143.684C1057.82 141.417 1058.12 139.052 1058.03 136.684C1057.85 132.524 1055.9 129.924 1051.92 128.684C1049.13 127.94 1046.25 127.52 1043.36 127.434C1038 127.094 1032.63 126.984 1027.28 126.614C1020.7 126.144 1014.09 125.924 1007.55 124.864C1003.76 124.36 1000.05 123.312 996.552 121.754C994.171 120.722 992.112 119.069 990.589 116.969C989.066 114.869 988.134 112.398 987.892 109.814C987.429 105.486 987.536 101.115 988.212 96.8145C988.96 90.7586 990.594 84.8454 993.062 79.2645C996.062 72.4745 1000.53 66.9445 1007.19 63.3745C1010.7 61.6082 1014.47 60.4164 1018.35 59.8445C1029.84 57.7923 1041.53 56.9876 1053.19 57.4445C1060.72 57.7322 1068.22 58.5576 1075.63 59.9145C1078.9 60.4773 1082.02 61.6877 1084.81 63.4745C1090.01 66.8845 1092.63 71.8445 1093.35 77.8945C1093.61 80.5547 1093.61 83.2343 1093.35 85.8945C1093.27 86.61 1093.12 87.3163 1092.9 88.0045C1092.68 88.8613 1092.19 89.6279 1091.52 90.1991C1090.84 90.7702 1090 91.118 1089.12 91.1945C1088.41 91.2829 1087.68 91.3163 1086.96 91.2945L1070.85 91.3745C1069.92 91.4099 1068.99 91.3697 1068.07 91.2545C1067.03 91.1841 1066.04 90.7221 1065.32 89.9603C1064.6 89.1986 1064.19 88.1932 1064.18 87.1445C1064.1 86.1129 1064.1 85.0761 1064.18 84.0445C1064.26 83.1655 1064.07 82.2831 1063.65 81.5101C1063.22 80.7371 1062.58 80.1085 1061.79 79.7045C1060.82 79.0975 1059.75 78.6864 1058.62 78.4945C1052.3 77.4945 1045.96 76.7645 1039.52 77.4945C1036.13 77.8545 1032.78 78.3645 1029.43 78.9845C1027.7 79.2943 1026.05 79.9487 1024.57 80.9089C1023.09 81.8691 1021.83 83.1155 1020.84 84.5745C1018.44 87.9245 1016.84 91.5745 1017.05 95.7845C1017.22 99.4945 1018.93 101.684 1022.54 102.734C1023.23 102.946 1023.94 103.083 1024.65 103.144C1030.41 103.604 1036.17 104.064 1041.94 104.444C1048.74 104.894 1055.54 105.204 1062.34 105.694C1066.26 105.957 1070.12 106.758 1073.82 108.074C1075.47 108.666 1077.06 109.424 1078.56 110.334C1081.96 112.376 1084.54 115.542 1085.85 119.284C1086.67 121.532 1087.12 123.895 1087.19 126.284C1087.43 134.769 1085.96 143.215 1082.85 151.114C1078.77 161.524 1071.3 168.544 1060.85 172.364C1056.86 173.775 1052.71 174.708 1048.5 175.145C1041.23 175.988 1033.93 176.438 1026.61 176.494C1025.37 176.494 1024.14 176.615 1023.5 176.645Z" fill="white"/>
<path d="M597.633 58.0132C601.043 58.0132 604.453 57.9132 607.853 58.0132C613.941 58.1952 619.977 59.2044 625.793 61.0132C627.963 61.6803 630.052 62.5858 632.023 63.7132C634.335 65.0031 636.338 66.7817 637.892 68.925C639.447 71.0683 640.515 73.5248 641.023 76.1232C641.484 78.1379 641.725 80.1965 641.743 82.2632C641.743 85.3532 641.743 88.4532 641.743 91.5532C641.738 92.9086 641.535 94.2559 641.143 95.5532C640.909 96.5078 640.409 97.3765 639.701 98.058C638.993 98.7396 638.106 99.2061 637.143 99.4032C635.648 99.8046 634.11 100.023 632.563 100.053H618.623C618.213 100.053 617.803 100.053 617.393 100.003C615.143 99.8032 613.333 98.9032 613.143 96.0032C613.053 94.6632 612.843 93.3432 612.723 92.0032C612.643 91.0832 612.723 90.1432 612.563 89.2232C611.943 84.7932 609.803 82.3932 605.443 81.3332C600.448 80.0243 595.296 79.4118 590.133 79.5132C586.211 79.6659 582.327 80.3384 578.583 81.5132C575.84 82.2972 573.317 83.7107 571.217 85.6412C569.116 87.5717 567.495 89.9659 566.483 92.6332C565.769 94.3468 565.174 96.1077 564.703 97.9032C561.703 109.483 558.943 121.113 557.073 132.903C556.447 136.148 556.149 139.448 556.183 142.753C556.383 147.893 558.663 151.043 563.483 152.753C564.158 153.008 564.854 153.205 565.563 153.343C570.015 154.249 574.57 154.548 579.103 154.233C582.183 153.953 585.273 153.873 588.353 153.413C590.93 153.127 593.396 152.203 595.527 150.726C597.659 149.25 599.389 147.266 600.563 144.953C601.494 143.114 602.235 141.184 602.773 139.193C603.323 137.313 603.933 135.453 604.623 133.623C604.91 132.73 605.452 131.94 606.182 131.35C606.913 130.76 607.799 130.396 608.733 130.303C609.847 130.104 610.973 129.974 612.103 129.913C617.673 129.913 623.253 129.913 628.823 129.913C629.752 129.864 630.682 129.993 631.563 130.293C632.069 130.425 632.512 130.731 632.816 131.157C633.119 131.583 633.263 132.102 633.223 132.623C633.186 133.445 633.028 134.258 632.753 135.033C632.179 136.907 631.653 138.793 631.173 140.693C630.117 144.898 628.597 148.973 626.643 152.843C621.063 163.793 612.263 170.713 600.413 173.843C596.102 174.89 591.703 175.529 587.273 175.753C579.853 176.243 572.433 176.493 565.003 176.353C558.592 176.238 552.217 175.382 546.003 173.803C543.492 173.21 541.066 172.303 538.783 171.103C536.151 169.75 533.854 167.826 532.062 165.471C530.269 163.116 529.026 160.391 528.423 157.493C528.098 156.182 527.897 154.842 527.823 153.493C527.449 146.17 527.676 138.829 528.503 131.543C529.872 120.377 532.426 109.388 536.123 98.7632C537.843 93.7899 539.753 88.8932 541.853 84.0732C543.962 79.0038 547.113 74.434 551.101 70.6597C555.089 66.8854 559.825 63.9908 565.003 62.1632C570.157 60.3315 575.506 59.1 580.943 58.4932C586.503 57.8232 592.063 58.0332 597.633 58.0132Z" fill="white"/>
<path d="M1174.18 59.3135H1190.6C1191.74 59.2432 1192.87 59.3649 1193.96 59.6735C1194.27 59.7282 1194.57 59.8462 1194.83 60.0202C1195.09 60.1941 1195.31 60.4202 1195.48 60.6842C1195.65 60.9482 1195.76 61.2444 1195.81 61.554C1195.86 61.8637 1195.84 62.1802 1195.76 62.4835C1195.74 62.9975 1195.62 63.5027 1195.41 63.9735C1194.24 66.3135 1193.9 68.8935 1193.2 71.3735C1192.75 72.9635 1192.35 74.5635 1191.82 76.1235C1190.6 79.6635 1189.17 80.7535 1185.48 80.9335C1183.42 81.0335 1181.35 81.0235 1179.29 81.0335C1171.75 81.0335 1164.21 81.0335 1156.68 81.0335C1154.82 81.0646 1152.97 81.2216 1151.13 81.5035C1150.09 81.5947 1149.11 81.9853 1148.29 82.628C1147.47 83.2706 1146.85 84.1375 1146.51 85.1235C1146.07 86.2768 1145.71 87.4639 1145.45 88.6735C1143.39 98.4601 1141.34 108.253 1139.32 118.053C1137.52 126.843 1135.8 135.643 1134 144.433C1133.72 145.747 1133.58 147.089 1133.6 148.433C1133.53 149.584 1133.87 150.722 1134.55 151.65C1135.24 152.578 1136.22 153.237 1137.34 153.513C1139.7 154.299 1142.19 154.598 1144.66 154.393C1150.45 153.973 1154.47 151.013 1156.88 145.763C1157.73 143.769 1158.46 141.729 1159.08 139.653C1159.7 137.793 1160.3 135.923 1161.02 134.103C1161.39 133.072 1162.04 132.166 1162.9 131.491C1163.76 130.816 1164.79 130.4 1165.88 130.293C1166.9 130.131 1167.92 130.027 1168.95 129.983C1173.08 129.923 1177.21 129.883 1181.34 129.903C1185.47 129.923 1186.45 131.133 1185.55 135.063C1183.7 143.123 1181.55 151.063 1177.43 158.373C1175.32 162.361 1172.39 165.851 1168.82 168.611C1165.25 171.37 1161.13 173.335 1156.74 174.373C1149.74 176.194 1142.52 177.022 1135.29 176.833C1129.31 176.634 1123.36 175.792 1117.55 174.323C1115.85 173.886 1114.2 173.245 1112.65 172.413C1110.35 171.228 1108.36 169.521 1106.83 167.429C1105.31 165.337 1104.29 162.918 1103.86 160.363C1103.28 157.1 1103.37 153.753 1104.11 150.523C1106.61 138.097 1109.14 125.67 1111.72 113.243C1113.5 104.663 1115.37 96.1035 1117.2 87.5235C1117.37 86.8236 1117.48 86.1111 1117.52 85.3935C1117.62 82.3935 1116.29 81.0335 1113.25 80.9835C1112.22 80.9701 1111.18 81.0471 1110.16 81.2135C1109.14 81.3334 1108.1 81.245 1107.1 80.9535C1106.38 80.8355 1105.72 80.4511 1105.27 79.8756C1104.81 79.3002 1104.59 78.5753 1104.64 77.8435C1104.64 77.1224 1104.76 76.4062 1104.99 75.7235C1105.76 73.26 1106.25 70.717 1106.44 68.1435C1106.63 66.4033 1107.12 64.7101 1107.9 63.1435C1108.41 61.9455 1109.27 60.9261 1110.36 60.2141C1111.45 59.5022 1112.73 59.1296 1114.03 59.1435C1115.47 59.1435 1116.92 59.2635 1118.36 59.3635C1121.63 59.5735 1123.15 58.6135 1124 55.3635C1124.68 52.7735 1125.11 50.1235 1125.6 47.4835C1126.09 44.8435 1126.55 42.0035 1127.04 39.2635C1127.2 38.325 1127.42 37.3992 1127.71 36.4935C1127.98 35.5949 1128.52 34.8012 1129.26 34.2199C1130 33.6386 1130.9 33.2978 1131.83 33.2435C1132.44 33.1835 1133.06 33.2435 1133.68 33.2435H1151.96C1152.37 33.2435 1152.79 33.2435 1153.2 33.2435C1155.79 33.4535 1156.94 34.8035 1156.43 37.4035C1155.43 42.5635 1154.31 47.7035 1153.23 52.8435C1153.03 53.7535 1152.72 54.6435 1152.58 55.5535C1152.26 57.6735 1153.19 58.9635 1155.3 59.2635C1156.23 59.3687 1157.15 59.4089 1158.08 59.3835H1174.19L1174.18 59.3135Z" fill="white"/>
<path d="M855.412 9.63477H866.412C866.62 9.63651 866.827 9.65321 867.032 9.68475C870.032 10.0348 870.972 11.2347 870.552 14.2747C870.242 16.5147 869.813 18.7447 869.323 20.9547C868.793 23.3747 868.143 25.7548 867.523 28.1548C866.833 30.8348 866.183 31.4248 863.523 31.4048C860.213 31.4048 856.923 31.7047 853.633 31.9247C851.471 32.0898 849.336 32.5094 847.273 33.1747C845.535 33.6952 843.926 34.5736 842.548 35.7533C841.17 36.9331 840.054 38.388 839.273 40.0247C838.329 41.9754 837.563 44.0069 836.983 46.0948C836.163 48.8648 835.453 51.6647 834.693 54.4547C834.613 54.7447 834.533 55.0447 834.473 55.3547C834.003 58.0947 834.843 59.1348 837.703 59.3047C838.523 59.3547 839.352 59.3047 840.182 59.3047H855.353C856.073 59.3047 856.793 59.3047 857.523 59.3047C860.523 59.4747 861.523 60.4248 861.083 63.3848C860.596 67.3796 859.749 71.3223 858.552 75.1648C858.188 76.5762 857.404 77.8439 856.304 78.8008C855.205 79.7577 853.841 80.3588 852.393 80.5247C851.275 80.716 850.146 80.8329 849.013 80.8748C845.503 80.9448 842.013 80.9948 838.483 80.9648C836.629 81.0028 834.78 81.1464 832.943 81.3947C831.851 81.4626 830.808 81.8703 829.96 82.5607C829.111 83.2512 828.501 84.1897 828.213 85.2448C827.476 87.7153 826.898 90.2304 826.483 92.7747C824.113 104.285 821.843 115.775 819.483 127.315C817.333 137.605 815.053 147.865 812.812 158.135C811.913 162.265 810.972 166.385 810.052 170.515C809.952 170.915 809.863 171.315 809.763 171.715C809.073 174.275 807.762 175.315 805.162 175.475C804.646 175.51 804.129 175.51 803.613 175.475C797.843 175.165 792.062 175.365 786.292 175.475C785.263 175.565 784.225 175.504 783.213 175.295C781.693 174.885 781.062 174.225 781.062 172.705C781.072 171.572 781.192 170.444 781.422 169.335C785.622 150.001 789.836 130.668 794.062 111.335C795.816 103.281 797.569 95.2248 799.323 87.1648C799.523 86.3668 799.66 85.5543 799.733 84.7347C799.853 82.2447 798.793 81.0648 796.343 80.9348C795.623 80.9348 794.902 80.9847 794.182 80.9847C792.112 80.9847 790.043 81.0547 787.993 80.9847C785.943 80.9147 784.863 79.6247 784.993 77.4847C785.063 76.9759 785.163 76.4717 785.292 75.9748C786.192 71.7348 787.073 67.4947 787.973 63.2647C788.563 60.5147 789.573 59.5747 792.373 59.3947C794.543 59.2647 796.713 59.3348 798.873 59.2548C799.901 59.2 800.923 59.0696 801.932 58.8647C802.754 58.7314 803.523 58.3717 804.152 57.8258C804.781 57.28 805.245 56.5698 805.493 55.7747C805.936 54.5102 806.306 53.2215 806.603 51.9148C808.137 44.8612 810.197 37.9319 812.763 31.1848C814.232 27.0886 816.564 23.3556 819.6 20.2381C822.636 17.1207 826.306 14.6915 830.363 13.1147C832.759 12.1525 835.24 11.416 837.773 10.9148C842.116 9.99221 846.554 9.59601 850.993 9.73474C852.465 9.85975 853.947 9.82625 855.412 9.63477Z" fill="white"/>
<path d="M1191.27 24.4339H1186.58V4.00391H1179.42V0.00390625H1198.42V4.00391H1191.25L1191.27 24.4339Z" fill="white"/>
<path d="M1222.83 24.4339H1218.63L1210.88 3.94391H1210.78L1211.17 24.4339H1206.48V0.00390625H1214.01L1220.65 18.1439H1220.78L1227.29 0.00390625H1234.98V24.4339H1230.29L1230.68 3.8439H1230.52L1222.83 24.4339Z" fill="white"/>
<path d="M12.26 250.945L8.07999 258.645H0L22.13 217.965H33.63L38.79 258.645H30.87L29.87 250.945H12.26ZM26.85 223.945H26.71L15.27 245.045H29.32L26.85 223.945Z" fill="white"/>
<path d="M63.7125 237.925C63.8144 237.499 63.8714 237.063 63.8825 236.625C63.8825 235.625 63.5325 235.055 62.8825 234.835C61.6358 234.559 60.3581 234.448 59.0825 234.505C57.4334 234.423 55.7826 234.626 54.2025 235.105C53.2025 235.505 52.5025 236.555 52.1425 238.255C52.0428 238.665 51.9859 239.084 51.9725 239.505C51.9542 239.845 52.0595 240.18 52.2691 240.448C52.4786 240.717 52.7782 240.9 53.1125 240.965C54.7772 241.283 56.4677 241.447 58.1625 241.455H59.6225C61.3625 241.525 62.7225 241.625 63.7225 241.725C64.6845 241.829 65.6252 242.079 66.5125 242.465C67.3585 242.82 68.0768 243.423 68.5725 244.195C69.1233 245.139 69.3874 246.223 69.3325 247.315C69.3166 248.375 69.1892 249.431 68.9525 250.465C68.6438 252.091 67.9589 253.621 66.9525 254.935C66.0655 256.05 64.9233 256.934 63.6225 257.515C62.2583 258.109 60.8118 258.494 59.3325 258.655C57.5124 258.849 55.6828 258.939 53.8525 258.925C51.7225 258.925 50.0425 258.925 48.8525 258.815C47.723 258.764 46.6073 258.545 45.5425 258.165C44.6116 257.841 43.8113 257.223 43.2625 256.405C42.6774 255.414 42.3958 254.274 42.4525 253.125C42.4736 251.953 42.6178 250.787 42.8825 249.645H49.7125C49.5904 250.329 49.5202 251.021 49.5025 251.715C49.4408 252.131 49.512 252.556 49.7059 252.93C49.8998 253.303 50.2065 253.606 50.5825 253.795C51.9764 254.189 53.4268 254.344 54.8725 254.255C56.6387 254.358 58.4094 254.148 60.1025 253.635C61.1025 253.215 61.7725 252.165 62.1025 250.465C62.2176 249.965 62.2878 249.457 62.3125 248.945C62.3097 248.55 62.1784 248.166 61.9385 247.852C61.6985 247.539 61.363 247.311 60.9825 247.205C59.3178 246.738 57.5896 246.539 55.8625 246.615C51.6325 246.535 48.7325 246.165 47.1825 245.495C46.4264 245.173 45.7926 244.619 45.3736 243.912C44.9545 243.205 44.772 242.383 44.8525 241.565C44.8983 240.283 45.0793 239.009 45.3925 237.765C45.6758 236.149 46.3258 234.62 47.2925 233.295C48.1113 232.224 49.2076 231.398 50.4625 230.905C51.7457 230.411 53.0924 230.101 54.4625 229.985C55.8825 229.855 57.7425 229.795 60.0225 229.795C61.6825 229.795 63.0225 229.795 64.1925 229.935C65.2934 230.019 66.3789 230.244 67.4225 230.605C68.3993 230.929 69.2586 231.534 69.8925 232.345C70.5478 233.279 70.8717 234.405 70.8125 235.545C70.8054 236.329 70.7149 237.11 70.5425 237.875L63.7125 237.925Z" fill="white"/>
<path d="M78.7111 258.645H71.8711L77.9511 230.165H84.7111L78.7111 258.645ZM86.1411 223.765H79.3011L80.5011 217.965H87.3311L86.1411 223.765Z" fill="white"/>
<path d="M104.371 255.065H104.211C103.753 255.918 103.111 256.659 102.331 257.235C101.611 257.776 100.793 258.174 99.9214 258.405C99.0972 258.635 98.2537 258.789 97.4014 258.865C96.5814 258.935 95.6414 258.975 94.5514 258.975C92.2105 259.11 89.8707 258.692 87.7214 257.755C86.2014 256.945 85.4414 255.375 85.4414 253.065C85.4522 252.004 85.5796 250.948 85.8214 249.915C86.5414 246.628 87.8747 244.352 89.8214 243.085C91.768 241.818 94.5881 241.185 98.2814 241.185C99.9198 241.118 101.56 241.263 103.161 241.615C103.862 241.8 104.512 242.142 105.061 242.615C105.591 243.105 105.969 243.737 106.151 244.435H106.371L107.131 240.745C107.393 239.659 107.553 238.551 107.611 237.435C107.655 236.991 107.574 236.543 107.378 236.143C107.182 235.742 106.878 235.403 106.501 235.165C105.21 234.622 103.808 234.396 102.411 234.505C100.961 234.431 99.5116 234.684 98.1714 235.245C97.6172 235.596 97.1495 236.069 96.8032 236.626C96.4569 237.184 96.2409 237.812 96.1714 238.465H89.3314C89.6607 236.754 90.3418 235.129 91.3314 233.695C92.1387 232.57 93.2241 231.674 94.4814 231.095C95.7113 230.551 97.0221 230.214 98.3614 230.095C100.023 229.934 101.692 229.86 103.361 229.875C107.361 229.875 110.231 230.295 111.931 231.145C113.631 231.995 114.481 233.725 114.481 236.325C114.453 237.842 114.272 239.353 113.941 240.835L110.141 258.675H103.311L104.371 255.065ZM94.8514 246.495C93.7814 246.945 93.0514 248.075 92.6514 249.885C92.5198 250.473 92.4461 251.072 92.4314 251.675C92.37 252.111 92.4544 252.555 92.6714 252.939C92.8884 253.322 93.2258 253.623 93.6314 253.795C95.0414 254.195 96.5081 254.357 97.9714 254.275C99.6538 254.362 101.335 254.086 102.901 253.465C104.021 252.925 104.781 251.735 105.181 249.885C105.282 249.476 105.336 249.056 105.341 248.635C105.41 248.151 105.314 247.659 105.069 247.236C104.824 246.814 104.445 246.486 103.991 246.305C100.978 245.593 97.8327 245.658 94.8514 246.495Z" fill="white"/>
<path d="M122.54 228.925C123.461 228.972 124.371 228.704 125.12 228.165C125.895 227.385 126.397 226.374 126.55 225.285H123.84L125.36 217.965H132.2L130.84 224.365C130.622 225.532 130.332 226.684 129.97 227.815C129.695 228.623 129.293 229.383 128.78 230.065C128.222 230.75 127.49 231.272 126.66 231.575C125.549 231.978 124.371 232.165 123.19 232.125H121.84L122.54 228.925Z" fill="white"/>
<path d="M150.151 237.925C150.25 237.498 150.303 237.063 150.311 236.625C150.311 235.625 149.971 235.055 149.311 234.835C146.43 234.317 143.473 234.409 140.631 235.105C139.631 235.505 138.931 236.555 138.571 238.255C138.474 238.665 138.42 239.084 138.411 239.505C138.392 239.845 138.498 240.18 138.707 240.448C138.917 240.717 139.216 240.9 139.551 240.965C141.199 241.28 142.872 241.444 144.551 241.455H146.021C147.761 241.525 149.121 241.625 150.111 241.725C151.076 241.828 152.02 242.077 152.911 242.465C153.755 242.823 154.472 243.425 154.971 244.195C155.521 245.139 155.786 246.223 155.731 247.315C155.715 248.375 155.587 249.431 155.351 250.465C155.042 252.091 154.357 253.621 153.351 254.935C152.462 256.052 151.316 256.937 150.011 257.515C148.65 258.111 147.207 258.495 145.731 258.655C143.91 258.848 142.081 258.939 140.251 258.925C138.121 258.925 136.431 258.925 135.201 258.815C134.071 258.763 132.956 258.544 131.891 258.165C130.964 257.838 130.168 257.221 129.621 256.405C129.027 255.418 128.742 254.276 128.801 253.125C128.826 251.953 128.973 250.786 129.241 249.645H136.071C135.949 250.329 135.878 251.021 135.861 251.715C135.799 252.131 135.87 252.556 136.064 252.93C136.258 253.303 136.565 253.606 136.941 253.795C138.334 254.19 139.785 254.345 141.231 254.255C142.997 254.358 144.767 254.148 146.461 253.635C147.461 253.215 148.131 252.165 148.461 250.465C148.583 249.966 148.656 249.457 148.681 248.945C148.678 248.55 148.547 248.166 148.307 247.852C148.067 247.539 147.731 247.311 147.351 247.205C145.686 246.738 143.958 246.539 142.231 246.615C138.001 246.535 135.101 246.165 133.551 245.495C132.793 245.175 132.157 244.621 131.736 243.914C131.315 243.207 131.131 242.384 131.211 241.565C131.256 240.282 131.44 239.008 131.761 237.765C132.039 236.148 132.69 234.618 133.661 233.295C134.477 232.222 135.574 231.395 136.831 230.905C138.114 230.41 139.46 230.1 140.831 229.985C142.261 229.855 144.111 229.795 146.391 229.795C148.061 229.795 149.451 229.795 150.571 229.935C151.671 230.019 152.757 230.244 153.801 230.605C154.777 230.929 155.637 231.534 156.271 232.345C156.926 233.279 157.25 234.405 157.191 235.545C157.184 236.329 157.093 237.11 156.921 237.875L150.151 237.925Z" fill="white"/>
<path d="M187.202 251.975H206.202L204.792 258.645H177.992L186.612 217.965H194.432L187.202 251.975Z" fill="white"/>
<path d="M227.782 255.065H227.612C227.157 255.918 226.518 256.659 225.742 257.235C225.021 257.776 224.203 258.174 223.332 258.405C222.507 258.635 221.664 258.789 220.812 258.865C219.992 258.935 219.042 258.975 217.962 258.975C215.617 259.109 213.275 258.691 211.122 257.755C209.602 256.945 208.852 255.375 208.852 253.065C208.864 252.005 208.988 250.949 209.222 249.915C209.955 246.628 211.288 244.352 213.222 243.085C215.155 241.818 217.975 241.185 221.682 241.185C223.32 241.118 224.96 241.263 226.562 241.615C227.262 241.8 227.912 242.142 228.462 242.615C228.991 243.105 229.369 243.737 229.552 244.435H229.762L230.522 240.745C230.79 239.66 230.954 238.551 231.012 237.435C231.055 236.991 230.974 236.543 230.778 236.143C230.582 235.742 230.279 235.403 229.902 235.165C228.607 234.621 227.201 234.395 225.802 234.505C224.354 234.432 222.908 234.685 221.572 235.245C221.017 235.596 220.55 236.069 220.203 236.626C219.857 237.184 219.641 237.812 219.572 238.465H212.712C213.036 236.752 213.718 235.127 214.712 233.695C215.517 232.568 216.603 231.672 217.862 231.095C219.091 230.551 220.402 230.214 221.742 230.095C223.403 229.934 225.072 229.86 226.742 229.875C230.742 229.875 233.612 230.295 235.312 231.145C237.012 231.995 237.862 233.725 237.862 236.325C237.833 237.842 237.652 239.353 237.322 240.835L233.522 258.675H226.712L227.782 255.065ZM218.262 246.495C217.192 246.945 216.462 248.075 216.062 249.885C215.925 250.472 215.851 251.072 215.842 251.675C215.78 252.111 215.865 252.555 216.082 252.939C216.299 253.322 216.636 253.623 217.042 253.795C218.452 254.195 219.918 254.357 221.382 254.275C223.064 254.362 224.745 254.086 226.312 253.465C227.432 252.925 228.192 251.735 228.592 249.885C228.692 249.476 228.746 249.056 228.752 248.635C228.82 248.151 228.724 247.659 228.479 247.236C228.235 246.814 227.855 246.486 227.402 246.305C224.388 245.593 221.243 245.658 218.262 246.495Z" fill="white"/>
<path d="M252.621 230.163L251.621 233.913H251.901C252.741 232.519 253.991 231.419 255.481 230.763C257.029 230.131 258.689 229.818 260.361 229.843C262.531 229.843 264.071 230.293 265.001 231.203C265.485 231.725 265.857 232.34 266.095 233.01C266.332 233.681 266.43 234.393 266.381 235.103C266.356 236.344 266.212 237.58 265.951 238.793L265.461 241.073H259.061L259.381 239.603C259.567 238.822 259.677 238.025 259.711 237.223C259.736 236.922 259.693 236.618 259.584 236.336C259.474 236.053 259.303 235.8 259.081 235.593C258.435 235.167 257.661 234.976 256.891 235.053C256.088 234.992 255.281 235.097 254.52 235.362C253.76 235.627 253.062 236.046 252.471 236.593C251.379 237.858 250.683 239.416 250.471 241.073L246.711 258.643H239.871L245.951 230.163H252.621Z" fill="white"/>
<path d="M271.562 271.124C275.137 271.216 278.714 271.079 282.272 270.714C283.902 270.391 285.44 269.707 286.772 268.714C288.045 267.689 289.071 266.39 289.772 264.914C290.709 262.885 291.382 260.744 291.772 258.544L297.852 230.114H291.012L290.362 234.404H290.142C290.009 233.638 289.703 232.913 289.247 232.284C288.791 231.655 288.198 231.138 287.512 230.774C285.848 230.041 284.038 229.699 282.222 229.774C280.071 229.703 277.929 230.081 275.932 230.884C274.338 231.553 272.956 232.641 271.932 234.034C270.936 235.416 270.176 236.954 269.682 238.584C269.162 240.274 268.602 242.464 268.032 245.184C267.499 247.35 267.187 249.564 267.102 251.794C267.028 252.777 267.168 253.765 267.514 254.688C267.859 255.612 268.401 256.45 269.102 257.144C270.435 258.31 272.742 258.897 276.022 258.904C277.915 258.93 279.798 258.618 281.582 257.984C283.323 257.29 284.81 256.079 285.842 254.514H286.002L284.862 259.934C284.633 260.988 284.298 262.017 283.862 263.004C283.543 263.719 283.047 264.342 282.422 264.814C281.73 265.288 280.941 265.602 280.112 265.734C278.914 265.943 277.698 266.037 276.482 266.014C275.272 266.086 274.06 265.909 272.922 265.494C272.558 265.29 272.264 264.982 272.077 264.609C271.89 264.237 271.818 263.817 271.872 263.404C271.886 262.762 271.977 262.124 272.142 261.504H265.742C265.407 262.689 265.222 263.912 265.192 265.144C265.151 266.232 265.407 267.31 265.932 268.264C266.425 269.083 267.153 269.734 268.022 270.134C269.012 270.604 270.073 270.908 271.162 271.034M288.092 243.494C287.652 245.634 287.272 247.254 286.952 248.354C286.712 249.398 286.293 250.393 285.712 251.294C285.092 252.131 284.245 252.773 283.272 253.144C281.988 253.594 280.632 253.804 279.272 253.764C277.927 253.889 276.581 253.534 275.472 252.764C275.092 252.367 274.799 251.895 274.613 251.378C274.427 250.862 274.352 250.311 274.392 249.764C274.541 247.694 274.875 245.643 275.392 243.634V243.574C275.685 242.079 276.1 240.611 276.632 239.184C276.968 238.256 277.477 237.401 278.132 236.664C278.69 236.065 279.403 235.633 280.192 235.414C281.21 235.152 282.261 235.034 283.312 235.064C285.372 235.064 286.812 235.384 287.652 236.064C288.091 236.455 288.432 236.944 288.647 237.491C288.863 238.038 288.947 238.628 288.892 239.214C288.803 240.682 288.576 242.138 288.212 243.564L288.092 243.494Z" fill="white"/>
<path d="M325.849 249.594C325.508 251.429 324.83 253.185 323.849 254.774C323.057 255.986 321.951 256.961 320.649 257.594C319.327 258.198 317.915 258.583 316.469 258.734C314.504 258.913 312.532 258.993 310.559 258.974C306.506 258.974 303.656 258.424 302.009 257.324C300.369 256.214 299.539 254.324 299.539 251.544C299.64 249.183 299.975 246.838 300.539 244.544C300.987 242.216 301.622 239.929 302.439 237.704C303.044 236.062 303.988 234.566 305.209 233.314C306.469 232.09 308.016 231.203 309.709 230.734C311.99 230.12 314.348 229.838 316.709 229.894C320.909 229.894 323.819 230.404 325.439 231.444C327.059 232.484 327.889 234.344 327.889 237.054C327.751 239.98 327.332 242.887 326.639 245.734H307.079C306.695 247.32 306.444 248.936 306.329 250.564C306.279 251.046 306.358 251.533 306.556 251.975C306.755 252.418 307.066 252.8 307.459 253.084C308.766 253.682 310.206 253.934 311.639 253.814C313.376 253.908 315.116 253.677 316.769 253.134C317.829 252.684 318.589 251.524 319.019 249.644L325.849 249.594ZM320.749 241.344C321.019 240.167 321.183 238.969 321.239 237.764C321.307 237.321 321.233 236.868 321.028 236.469C320.824 236.071 320.498 235.747 320.099 235.544C318.658 235.125 317.156 234.96 315.659 235.054C314.46 235.027 313.261 235.118 312.079 235.324C311.34 235.457 310.649 235.785 310.079 236.274C309.555 236.779 309.155 237.398 308.909 238.084C308.546 239.149 308.258 240.238 308.049 241.344H320.749Z" fill="white"/>
<path d="M351.192 237.925C351.286 237.497 351.34 237.062 351.352 236.625C351.352 235.625 351.012 235.055 350.352 234.835C347.471 234.317 344.514 234.409 341.672 235.105C340.672 235.505 339.972 236.555 339.612 238.255C339.515 238.665 339.461 239.084 339.452 239.505C339.431 239.844 339.534 240.179 339.742 240.447C339.95 240.716 340.248 240.9 340.582 240.965C342.23 241.279 343.904 241.443 345.582 241.455H347.042C348.782 241.525 350.142 241.625 351.142 241.725C352.104 241.828 353.045 242.077 353.932 242.465C354.778 242.819 355.496 243.423 355.992 244.195C356.543 245.139 356.807 246.223 356.752 247.315C356.741 248.376 356.613 249.432 356.372 250.465C356.072 252.093 355.386 253.626 354.372 254.935C353.485 256.049 352.343 256.934 351.042 257.515C349.678 258.112 348.232 258.496 346.752 258.655C344.932 258.849 343.102 258.939 341.272 258.925C339.142 258.925 337.462 258.925 336.272 258.815C335.142 258.763 334.027 258.544 332.962 258.165C332.054 257.859 331.267 257.275 330.712 256.495C330.127 255.504 329.845 254.364 329.902 253.215C329.923 252.043 330.067 250.877 330.332 249.735H337.172C337.042 250.418 336.969 251.11 336.952 251.805C336.89 252.221 336.961 252.646 337.155 253.02C337.349 253.393 337.656 253.696 338.032 253.885C339.426 254.278 340.876 254.433 342.322 254.345C344.088 254.448 345.859 254.238 347.552 253.725C348.552 253.305 349.232 252.255 349.552 250.555C349.669 250.055 349.742 249.547 349.772 249.035C349.767 248.64 349.635 248.257 349.396 247.944C349.156 247.63 348.821 247.403 348.442 247.295C346.773 246.829 345.042 246.63 343.312 246.705C339.078 246.625 336.185 246.251 334.632 245.585C333.876 245.262 333.244 244.707 332.825 244C332.406 243.294 332.223 242.472 332.302 241.655C332.348 240.373 332.529 239.099 332.842 237.855C333.125 236.239 333.775 234.71 334.742 233.385C335.563 232.316 336.658 231.49 337.912 230.995C339.195 230.501 340.542 230.191 341.912 230.075C343.342 229.945 345.192 229.885 347.472 229.885C349.132 229.885 350.522 229.885 351.642 230.025C352.743 230.109 353.828 230.334 354.872 230.695C355.85 231.016 356.71 231.622 357.342 232.435C357.997 233.369 358.321 234.495 358.262 235.635C358.255 236.419 358.164 237.2 357.992 237.965L351.192 237.925Z" fill="white"/>
<path d="M362.313 230.165H365.893L367.243 223.715H374.083L372.713 230.165H383.623L382.483 235.375H371.583L368.493 249.965V250.075C368.325 250.751 368.218 251.44 368.173 252.135C368.151 252.372 368.189 252.61 368.283 252.829C368.378 253.047 368.525 253.238 368.713 253.385C369.296 253.693 369.956 253.825 370.613 253.765C372.163 253.765 373.223 253.345 373.783 252.495C374.478 251.276 374.946 249.941 375.163 248.555C375.243 248.195 375.293 247.925 375.333 247.745H381.333C380.969 249.617 380.434 251.451 379.733 253.225C379.233 254.489 378.473 255.633 377.503 256.585C376.581 257.443 375.466 258.067 374.253 258.405C372.704 258.818 371.105 259.01 369.503 258.975C366.436 258.975 364.276 258.612 363.023 257.885C361.773 257.165 361.153 255.825 361.153 253.885C361.186 252.588 361.35 251.298 361.643 250.035L364.713 235.375H361.133L362.313 230.165Z" fill="white"/>
<path d="M410.863 245.685L410.423 247.585C410.297 248.211 410.226 248.847 410.212 249.485C410.152 250.046 410.292 250.611 410.609 251.078C410.926 251.545 411.399 251.884 411.942 252.035C414.134 252.494 416.375 252.676 418.613 252.575C420.064 252.599 421.515 252.509 422.952 252.305C423.882 252.184 424.773 251.859 425.562 251.355C426.21 250.902 426.725 250.284 427.053 249.565C427.461 248.602 427.76 247.595 427.942 246.565C428.108 245.87 428.202 245.159 428.222 244.445C428.222 243.105 427.772 242.265 426.892 241.925C425.348 241.487 423.748 241.278 422.142 241.305L419.912 241.195C419.662 241.195 419.172 241.115 418.452 241.085C416.212 240.975 414.452 240.835 413.192 240.645C411.985 240.474 410.808 240.138 409.692 239.645C408.636 239.189 407.754 238.408 407.173 237.415C406.502 236.192 406.18 234.808 406.243 233.415C406.273 231.969 406.457 230.531 406.792 229.125C407.198 226.831 408.073 224.645 409.363 222.705C410.4 221.212 411.815 220.022 413.462 219.255C415.12 218.52 416.887 218.06 418.692 217.895C420.592 217.715 423.046 217.625 426.053 217.625C428.293 217.625 430.123 217.695 431.553 217.815C432.89 217.924 434.205 218.217 435.462 218.685C436.58 219.098 437.544 219.845 438.222 220.825C438.95 222.028 439.298 223.422 439.222 224.825C439.201 226.083 439.053 227.336 438.782 228.565L438.512 229.865H430.712L430.982 228.565C431.116 227.94 431.19 227.304 431.202 226.665C431.278 226.194 431.183 225.711 430.933 225.303C430.684 224.896 430.297 224.592 429.842 224.445C428.152 224.079 426.421 223.934 424.692 224.015C422.592 224.015 420.972 224.075 419.832 224.195C418.882 224.274 417.954 224.525 417.092 224.935C416.424 225.278 415.869 225.805 415.493 226.455C415.053 227.284 414.753 228.179 414.602 229.105C414.387 229.939 414.26 230.794 414.222 231.655C414.167 232.157 414.292 232.663 414.576 233.081C414.86 233.499 415.285 233.802 415.772 233.935C417.938 234.42 420.145 234.694 422.363 234.755C425.293 234.935 427.552 235.125 429.162 235.315C430.534 235.472 431.879 235.808 433.162 236.315C434.147 236.692 434.989 237.367 435.572 238.245C436.149 239.289 436.423 240.474 436.363 241.665C436.313 243.31 436.092 244.946 435.702 246.545C435.287 248.895 434.482 251.159 433.322 253.245C432.44 254.802 431.155 256.094 429.602 256.985C428.029 257.835 426.309 258.378 424.532 258.585C422.103 258.865 419.658 258.992 417.212 258.965C414.546 258.965 412.382 258.902 410.722 258.775C409.216 258.673 407.729 258.37 406.303 257.875C405.073 257.462 404.003 256.676 403.243 255.625C402.436 254.356 402.048 252.866 402.132 251.365C402.148 250.09 402.292 248.821 402.562 247.575L402.993 245.675L410.863 245.685Z" fill="white"/>
<path d="M465.54 247.795C465.161 249.77 464.522 251.687 463.64 253.495C462.969 254.843 461.968 255.999 460.73 256.855C459.445 257.699 457.997 258.265 456.48 258.515C454.398 258.856 452.29 259.01 450.18 258.975C446.24 258.975 443.473 258.458 441.88 257.425C440.287 256.392 439.493 254.522 439.5 251.815C439.583 249.328 439.918 246.855 440.5 244.435C440.956 242.158 441.581 239.919 442.37 237.735C442.962 236.108 443.873 234.615 445.05 233.345C446.28 232.106 447.804 231.201 449.48 230.715C451.71 230.081 454.023 229.788 456.34 229.845C460.24 229.845 463.087 230.278 464.88 231.145C466.673 232.012 467.57 233.765 467.57 236.405C467.544 237.666 467.397 238.922 467.13 240.155H460.3C460.46 239.422 460.55 238.675 460.57 237.925C460.627 237.466 460.544 237.001 460.331 236.591C460.119 236.18 459.787 235.843 459.38 235.625C458.055 235.161 456.651 234.968 455.25 235.055C454.054 235.016 452.86 235.164 451.71 235.495C450.904 235.76 450.204 236.275 449.71 236.965C449.165 237.771 448.753 238.659 448.49 239.595C448.17 240.655 447.79 242.275 447.35 244.445L447.24 244.825C446.784 246.715 446.476 248.637 446.32 250.575C446.274 251.046 446.35 251.52 446.541 251.953C446.732 252.386 447.031 252.762 447.41 253.045C448.602 253.637 449.934 253.889 451.26 253.775C452.416 253.786 453.571 253.693 454.71 253.495C455.423 253.404 456.096 253.114 456.652 252.657C457.207 252.201 457.622 251.597 457.85 250.915C458.226 249.891 458.517 248.837 458.72 247.765L465.54 247.795Z" fill="white"/>
<path d="M474.713 258.645H467.883L473.953 230.165H480.793L474.713 258.645ZM482.153 223.765H475.313L476.503 217.965H483.343L482.153 223.765Z" fill="white"/>
<path d="M508.339 249.593C508.003 251.43 507.324 253.187 506.339 254.774C505.547 255.986 504.441 256.96 503.139 257.593C501.817 258.198 500.405 258.583 498.959 258.733C496.994 258.913 495.022 258.993 493.049 258.973C488.996 258.973 486.146 258.424 484.499 257.324C482.859 256.214 482.039 254.323 482.039 251.543C482.139 249.183 482.474 246.838 483.039 244.543C483.487 242.216 484.122 239.929 484.939 237.704C485.544 236.062 486.488 234.566 487.709 233.313C488.97 232.092 490.517 231.205 492.209 230.733C494.49 230.121 496.848 229.838 499.209 229.894C503.409 229.894 506.319 230.404 507.949 231.444C509.579 232.484 510.389 234.343 510.389 237.053C510.251 239.98 509.832 242.887 509.139 245.733H489.569C489.179 247.319 488.924 248.935 488.809 250.563C488.762 251.047 488.842 251.534 489.042 251.976C489.242 252.418 489.555 252.8 489.949 253.084C491.253 253.682 492.689 253.934 494.119 253.813C495.856 253.908 497.596 253.677 499.249 253.134C500.319 252.684 501.069 251.524 501.499 249.644L508.339 249.593ZM503.239 241.343C503.504 240.166 503.668 238.969 503.729 237.764C503.794 237.321 503.718 236.869 503.514 236.471C503.31 236.073 502.986 235.749 502.589 235.543C501.145 235.126 499.639 234.96 498.139 235.053C496.94 235.027 495.741 235.117 494.559 235.324C493.82 235.457 493.129 235.784 492.559 236.274C492.035 236.777 491.637 237.397 491.399 238.084C491.027 239.147 490.736 240.236 490.529 241.343H503.239Z" fill="white"/>
<path d="M524.881 230.165L523.961 234.455H524.181C525.017 232.765 526.439 231.436 528.181 230.715C530.096 230.082 532.106 229.788 534.121 229.845C537.021 229.845 539.121 230.325 540.361 231.285C541.024 231.838 541.543 232.544 541.874 233.341C542.205 234.139 542.338 235.005 542.261 235.865C542.236 237.211 542.071 238.552 541.771 239.865L537.771 258.635H530.931L534.711 240.585C534.902 239.747 535.012 238.893 535.041 238.035C535.085 237.598 535.016 237.157 534.841 236.755C534.666 236.352 534.391 236.001 534.041 235.735C532.982 235.188 531.789 234.952 530.601 235.055C527.815 235.055 525.851 235.668 524.711 236.895C523.334 238.666 522.429 240.758 522.081 242.975L518.771 258.645H511.941L518.021 230.165H524.881Z" fill="white"/>
<path d="M571.59 247.795C571.218 249.769 570.585 251.686 569.71 253.495C569.039 254.839 568.042 255.995 566.81 256.855C565.52 257.697 564.07 258.262 562.55 258.515C560.468 258.856 558.36 259.01 556.25 258.975C552.31 258.975 549.55 258.455 547.95 257.425C546.35 256.395 545.57 254.525 545.57 251.815C545.654 249.328 545.989 246.855 546.57 244.435C547.027 242.158 547.652 239.919 548.44 237.735C549.031 236.105 549.946 234.611 551.13 233.345C552.354 232.104 553.876 231.199 555.55 230.715C557.78 230.081 560.093 229.788 562.41 229.845C566.31 229.845 569.157 230.278 570.95 231.145C572.744 232.012 573.64 233.765 573.64 236.405C573.615 237.666 573.467 238.922 573.2 240.155H566.37C566.53 239.422 566.62 238.675 566.64 237.925C566.697 237.466 566.614 237.001 566.402 236.591C566.189 236.18 565.858 235.843 565.45 235.625C564.125 235.161 562.721 234.968 561.32 235.055C560.122 235.012 558.924 235.157 557.77 235.485C556.965 235.75 556.264 236.265 555.77 236.955C555.229 237.763 554.818 238.65 554.55 239.585C554.23 240.645 553.85 242.265 553.41 244.435L553.31 244.815C552.847 246.704 552.536 248.627 552.38 250.565C552.334 251.036 552.41 251.51 552.601 251.943C552.792 252.376 553.092 252.752 553.47 253.035C554.663 253.626 555.994 253.878 557.32 253.765C558.456 253.776 559.591 253.686 560.71 253.495C561.441 253.381 562.129 253.082 562.71 252.625C563.232 252.159 563.631 251.572 563.87 250.915C564.246 249.891 564.537 248.837 564.74 247.765L571.59 247.795Z" fill="white"/>
<path d="M601.58 249.594C601.243 251.43 600.565 253.188 599.58 254.774C598.788 255.986 597.682 256.961 596.38 257.594C595.057 258.198 593.646 258.583 592.2 258.734C590.235 258.913 588.262 258.993 586.29 258.974C582.236 258.974 579.386 258.424 577.74 257.324C576.1 256.214 575.27 254.324 575.27 251.544C575.37 249.183 575.705 246.838 576.27 244.544C576.718 242.216 577.353 239.929 578.17 237.704C578.774 236.062 579.718 234.566 580.94 233.314C582.199 232.09 583.747 231.203 585.44 230.734C587.721 230.12 590.078 229.838 592.44 229.894C596.64 229.894 599.55 230.404 601.18 231.444C602.81 232.484 603.62 234.344 603.62 237.054C603.481 239.98 603.063 242.887 602.37 245.734H582.82C582.429 247.319 582.175 248.935 582.06 250.564C582.01 251.046 582.088 251.533 582.287 251.975C582.485 252.418 582.796 252.8 583.19 253.084C584.497 253.682 585.937 253.934 587.37 253.814C589.107 253.908 590.847 253.677 592.5 253.134C593.56 252.684 594.32 251.524 594.75 249.644L601.58 249.594ZM596.49 241.344C596.753 240.166 596.913 238.969 596.97 237.764C597.037 237.321 596.963 236.868 596.759 236.469C596.554 236.071 596.229 235.747 595.83 235.544C594.389 235.125 592.887 234.96 591.39 235.054C590.19 235.027 588.991 235.118 587.81 235.324C587.07 235.457 586.38 235.785 585.81 236.274C585.285 236.779 584.885 237.398 584.64 238.084C584.276 239.149 583.989 240.238 583.78 241.344H596.49Z" fill="white"/>
<path d="M655.231 254.493C654.477 255.513 653.516 256.361 652.411 256.983C651.326 257.603 650.157 258.061 648.941 258.343C647.729 258.631 646.494 258.811 645.251 258.883C644.021 258.953 642.581 258.993 640.911 258.993C638.311 258.993 636.167 258.913 634.481 258.753C632.972 258.627 631.491 258.269 630.091 257.693C628.903 257.2 627.899 256.347 627.221 255.253C626.493 253.927 626.147 252.425 626.221 250.913C626.252 249.36 626.453 247.814 626.821 246.303C627.093 244.816 627.491 243.354 628.011 241.933C628.449 240.746 629.062 239.63 629.831 238.623C630.598 237.635 631.584 236.838 632.711 236.293C634.04 235.671 635.475 235.305 636.941 235.213C636.265 234.55 635.689 233.792 635.231 232.963C634.872 232.247 634.693 231.454 634.711 230.653C634.736 229.758 634.846 228.868 635.041 227.993C635.393 226.086 636.07 224.253 637.041 222.573C637.806 221.291 638.878 220.218 640.161 219.453C641.483 218.722 642.926 218.234 644.421 218.013C646.388 217.738 648.374 217.611 650.361 217.633C654.407 217.633 657.207 218.05 658.761 218.883C660.321 219.713 661.101 221.403 661.101 223.933C661.021 226.107 660.73 228.267 660.231 230.383H653.561C653.863 229.102 654.06 227.797 654.151 226.483C654.214 226.087 654.151 225.682 653.972 225.323C653.792 224.964 653.505 224.671 653.151 224.483C650.261 223.811 647.248 223.877 644.391 224.673C643.391 225.103 642.791 226.223 642.391 228.033C642.263 228.548 642.193 229.074 642.181 229.603C642.169 230.182 642.307 230.754 642.581 231.263C642.935 231.851 643.365 232.389 643.861 232.863L654.381 244.093L655.521 238.613H662.191L661.651 241.373C661.291 243.073 660.941 244.503 660.591 245.663C660.249 246.828 659.786 247.954 659.211 249.023L663.931 254.123L659.261 258.623L655.231 254.493ZM640.231 238.863C639.274 238.993 638.341 239.259 637.461 239.653C636.811 239.97 636.25 240.445 635.831 241.033C635.39 241.666 635.053 242.365 634.831 243.103C634.601 243.893 634.351 244.963 634.101 246.303C633.875 247.19 633.747 248.099 633.721 249.013C633.721 250.643 634.301 251.643 635.461 252.013C637.686 252.501 639.965 252.692 642.241 252.583C644.055 252.626 645.87 252.499 647.661 252.203C648.989 251.894 650.186 251.173 651.081 250.143L640.231 238.863Z" fill="white"/>
<path d="M702.261 258.645H694.451L701.671 224.645H689.711L691.121 217.975H722.801L721.391 224.645H709.481L702.261 258.645Z" fill="white"/>
<path d="M740.292 249.595C739.956 251.431 739.278 253.189 738.292 254.775C737.504 255.99 736.397 256.966 735.092 257.595C733.774 258.199 732.365 258.584 730.922 258.735C728.954 258.914 726.978 258.994 725.002 258.975C720.955 258.975 718.109 258.425 716.462 257.325C714.812 256.215 713.992 254.325 713.992 251.545C714.093 249.184 714.428 246.839 714.992 244.545C715.44 242.217 716.076 239.93 716.892 237.705C717.489 236.062 718.43 234.565 719.652 233.315C720.915 232.095 722.461 231.208 724.152 230.735C726.453 230.117 728.831 229.835 731.212 229.895C735.402 229.895 738.312 230.405 739.942 231.445C741.572 232.485 742.382 234.345 742.382 237.055C742.249 239.982 741.83 242.889 741.132 245.735H721.522C721.132 247.32 720.877 248.936 720.762 250.565C720.715 251.048 720.795 251.535 720.995 251.977C721.195 252.419 721.508 252.801 721.902 253.085C723.209 253.684 724.649 253.936 726.082 253.815C727.816 253.91 729.553 253.679 731.202 253.135C732.272 252.685 733.022 251.525 733.452 249.645L740.292 249.595ZM735.192 241.345C735.462 240.168 735.626 238.97 735.682 237.765C735.75 237.322 735.676 236.869 735.471 236.47C735.267 236.072 734.942 235.748 734.542 235.545C733.098 235.127 731.593 234.961 730.092 235.055C728.893 235.029 727.694 235.119 726.512 235.325C725.772 235.456 725.081 235.784 724.512 236.275C723.988 236.78 723.588 237.399 723.342 238.085C722.97 239.148 722.679 240.237 722.472 241.345H735.192Z" fill="white"/>
<path d="M771.103 247.795C770.728 249.772 770.089 251.689 769.203 253.495C768.535 254.842 767.538 255.998 766.302 256.855C765.014 257.701 763.563 258.266 762.042 258.515C759.964 258.856 757.859 259.01 755.753 258.975C751.813 258.975 749.046 258.458 747.453 257.425C745.859 256.392 745.062 254.522 745.062 251.815C745.151 249.328 745.486 246.856 746.062 244.435C746.521 242.158 747.15 239.918 747.943 237.735C748.53 236.105 749.441 234.612 750.622 233.345C751.848 232.107 753.369 231.201 755.043 230.715C757.272 230.081 759.585 229.788 761.902 229.845C765.816 229.845 768.666 230.278 770.453 231.145C772.239 232.012 773.133 233.765 773.133 236.405C773.111 237.666 772.967 238.922 772.703 240.155H765.863C766.025 239.422 766.119 238.675 766.143 237.925C766.2 237.465 766.116 236.999 765.901 236.588C765.687 236.177 765.353 235.841 764.943 235.625C763.621 235.161 762.22 234.967 760.823 235.055C759.624 235.011 758.426 235.156 757.273 235.485C756.467 235.75 755.766 236.265 755.273 236.955C754.723 237.758 754.311 238.647 754.053 239.585C753.723 240.645 753.343 242.265 752.913 244.435L752.803 244.815C752.346 246.705 752.039 248.627 751.883 250.565C751.837 251.035 751.913 251.508 752.102 251.94C752.291 252.372 752.587 252.749 752.963 253.035C754.159 253.625 755.493 253.878 756.823 253.765C757.964 253.788 759.105 253.707 760.233 253.525C760.963 253.411 761.651 253.112 762.233 252.655C762.757 252.19 763.159 251.603 763.402 250.945C763.779 249.921 764.07 248.867 764.273 247.795H771.103Z" fill="white"/>
<path d="M785.799 234.494H786.02C786.854 232.803 788.276 231.473 790.02 230.754C791.934 230.121 793.944 229.826 795.959 229.884C798.853 229.884 800.929 230.364 802.189 231.324C802.852 231.878 803.371 232.583 803.702 233.381C804.033 234.178 804.166 235.044 804.089 235.904C804.063 237.25 803.902 238.59 803.609 239.904L799.609 258.674H792.709L796.559 240.614C796.742 239.775 796.85 238.922 796.88 238.064C796.923 237.627 796.854 237.187 796.679 236.784C796.504 236.381 796.229 236.03 795.88 235.764C794.816 235.219 793.62 234.983 792.429 235.084C789.649 235.084 787.689 235.697 786.549 236.924C785.162 238.69 784.256 240.784 783.919 243.004L780.609 258.674H773.77L782.399 217.994H789.229L785.799 234.494Z" fill="white"/>
<path d="M819.159 230.165L818.24 234.455H818.459C819.294 232.764 820.716 231.434 822.459 230.715C824.374 230.082 826.384 229.787 828.399 229.845C831.286 229.845 833.363 230.325 834.63 231.285C835.292 231.838 835.811 232.544 836.142 233.342C836.473 234.139 836.606 235.005 836.529 235.865C836.504 237.212 836.339 238.552 836.039 239.865L832.039 258.635H825.209L829.059 240.575C829.242 239.736 829.35 238.883 829.38 238.025C829.423 237.588 829.354 237.147 829.179 236.745C829.004 236.342 828.729 235.991 828.38 235.725C827.316 235.18 826.12 234.944 824.929 235.045C822.149 235.045 820.189 235.658 819.049 236.885C817.662 238.651 816.756 240.745 816.419 242.965L813.109 258.635H806.27L812.349 230.155L819.159 230.165Z" fill="white"/>
<path d="M866.111 231.395C867.761 232.395 868.581 234.235 868.581 236.845C868.487 239.401 868.152 241.942 867.581 244.435C867.096 246.869 866.428 249.262 865.581 251.595C865 253.205 864.075 254.669 862.871 255.885C861.608 257.042 860.068 257.854 858.401 258.245C856.007 258.79 853.555 259.035 851.101 258.975C846.831 258.975 843.871 258.455 842.201 257.425C840.531 256.395 839.711 254.585 839.711 251.975C839.825 249.433 840.186 246.907 840.791 244.435C841.276 241.985 841.944 239.575 842.791 237.225C843.376 235.617 844.3 234.154 845.501 232.935C846.767 231.777 848.31 230.964 849.981 230.575C852.375 230.029 854.827 229.784 857.281 229.845C861.511 229.845 864.471 230.355 866.111 231.395ZM852.421 235.495C851.566 235.741 850.801 236.231 850.221 236.905C849.585 237.723 849.107 238.652 848.811 239.645C848.316 241.252 847.909 242.884 847.591 244.535C847.102 246.418 846.794 248.344 846.671 250.285C846.603 250.814 846.678 251.351 846.887 251.842C847.096 252.332 847.433 252.758 847.861 253.075C849.208 253.672 850.682 253.923 852.151 253.805C853.411 253.847 854.67 253.709 855.891 253.395C856.741 253.155 857.505 252.676 858.091 252.015C858.722 251.229 859.192 250.324 859.471 249.355C859.831 248.235 860.248 246.628 860.721 244.535C861.174 242.61 861.462 240.649 861.581 238.675C861.648 238.142 861.573 237.601 861.364 237.106C861.155 236.611 860.819 236.179 860.391 235.855C859.071 235.237 857.613 234.975 856.161 235.095C854.902 235.055 853.643 235.189 852.421 235.495Z" fill="white"/>
<path d="M877.15 258.645H870.32L878.94 217.965H885.78L877.15 258.645Z" fill="white"/>
<path d="M911.349 231.395C912.999 232.395 913.819 234.235 913.819 236.845C913.725 239.401 913.39 241.942 912.819 244.435C912.335 246.869 911.666 249.262 910.819 251.595C910.238 253.205 909.314 254.669 908.109 255.885C906.846 257.042 905.307 257.854 903.639 258.245C901.246 258.79 898.793 259.035 896.339 258.975C892.069 258.975 889.109 258.455 887.439 257.425C885.769 256.395 884.949 254.585 884.949 251.975C885.063 249.433 885.425 246.907 886.029 244.435C886.514 241.985 887.183 239.575 888.029 237.225C888.614 235.617 889.538 234.154 890.739 232.935C892.005 231.777 893.548 230.964 895.219 230.575C897.613 230.029 900.065 229.784 902.519 229.845C906.709 229.845 909.709 230.355 911.349 231.395ZM897.709 235.495C896.854 235.741 896.09 236.231 895.509 236.905C894.873 237.723 894.395 238.652 894.099 239.645C893.604 241.252 893.197 242.884 892.879 244.535C892.391 246.418 892.083 248.344 891.959 250.285C891.892 250.814 891.967 251.351 892.176 251.842C892.385 252.332 892.721 252.758 893.149 253.075C894.496 253.672 895.971 253.923 897.439 253.805C898.699 253.848 899.959 253.71 901.179 253.395C902.03 253.155 902.793 252.676 903.379 252.015C904.011 251.229 904.48 250.324 904.759 249.355C905.119 248.235 905.536 246.628 906.009 244.535C906.464 242.61 906.755 240.649 906.879 238.675C906.945 238.141 906.868 237.599 906.658 237.104C906.447 236.609 906.109 236.178 905.679 235.855C904.36 235.237 902.901 234.975 901.449 235.095C900.19 235.055 898.931 235.189 897.709 235.495Z" fill="white"/>
<path d="M920.439 271.074C919.35 270.952 918.287 270.659 917.289 270.204C916.425 269.802 915.701 269.15 915.209 268.334C914.684 267.38 914.428 266.302 914.469 265.214C914.494 263.982 914.679 262.758 915.019 261.574H921.419C921.249 262.193 921.158 262.832 921.149 263.474C921.091 263.882 921.155 264.298 921.333 264.67C921.511 265.042 921.795 265.353 922.149 265.564C923.288 265.979 924.499 266.156 925.709 266.084C926.925 266.107 928.141 266.013 929.339 265.804C930.168 265.673 930.957 265.358 931.649 264.884C932.272 264.412 932.764 263.789 933.079 263.074C933.516 262.087 933.851 261.059 934.079 260.004L935.219 254.584H935.059C934.025 256.147 932.539 257.358 930.799 258.054C929.015 258.689 927.132 259 925.239 258.974C921.952 258.974 919.646 258.387 918.319 257.214C917.618 256.52 917.076 255.683 916.731 254.759C916.386 253.835 916.245 252.847 916.319 251.864C916.405 249.636 916.713 247.421 917.239 245.254C917.819 242.534 918.369 240.344 918.899 238.654C919.394 237.024 920.154 235.487 921.149 234.104C922.173 232.712 923.555 231.623 925.149 230.954C927.146 230.152 929.288 229.774 931.439 229.844C933.256 229.77 935.065 230.112 936.729 230.844C937.415 231.209 938.009 231.725 938.464 232.355C938.92 232.984 939.226 233.709 939.359 234.474H939.579L940.229 230.184H947.069L940.989 258.614C940.599 260.814 939.927 262.955 938.989 264.984C938.288 266.46 937.263 267.759 935.989 268.784C934.657 269.778 933.119 270.461 931.489 270.784M929.319 235.474C928.528 235.694 927.812 236.126 927.249 236.724C926.602 237.465 926.097 238.32 925.759 239.244C925.228 240.672 924.81 242.14 924.509 243.634V243.694C923.996 245.704 923.662 247.755 923.509 249.824C923.469 250.372 923.544 250.922 923.73 251.439C923.916 251.956 924.209 252.428 924.589 252.824C925.698 253.595 927.044 253.949 928.389 253.824C929.749 253.864 931.105 253.654 932.389 253.204C933.363 252.833 934.209 252.191 934.829 251.354C935.455 250.485 935.926 249.514 936.219 248.484C936.539 247.384 936.919 245.764 937.359 243.624C937.695 242.183 937.893 240.713 937.949 239.234C938.004 238.648 937.92 238.056 937.702 237.509C937.485 236.961 937.141 236.473 936.699 236.084C935.869 235.434 934.429 235.084 932.359 235.084C931.316 235.046 930.273 235.154 929.259 235.404L929.319 235.474Z" fill="white"/>
<path d="M947.133 271.074L948.273 265.914L948.703 265.974C949.033 266.035 949.367 266.071 949.703 266.084C950.619 266.107 951.526 265.89 952.333 265.454C953.072 265.039 953.718 264.477 954.233 263.804C954.737 263.143 955.173 262.433 955.533 261.684C955.873 260.964 956.263 260.024 956.703 258.864L956.813 258.644H953.503L950.193 230.164H957.193L959.253 254.414H959.363L970.053 230.164H976.993L963.323 259.784C962.383 261.844 961.569 263.491 960.883 264.724C960.203 265.943 959.373 267.072 958.413 268.084C957.433 269.103 956.251 269.907 954.943 270.444" fill="white"/>
<path d="M1005.71 235.435H1023.83L1022.47 241.835H1004.35L1000.71 258.645H992.902L1001.53 217.965H1028.43L1027.02 224.635H1007.93L1005.71 235.435Z" fill="white"/>
<path d="M1051.99 249.595C1051.66 251.431 1050.98 253.189 1049.99 254.775C1049.2 255.987 1048.09 256.961 1046.79 257.595C1045.47 258.199 1044.06 258.584 1042.61 258.735C1040.65 258.914 1038.67 258.994 1036.7 258.975C1032.65 258.975 1029.8 258.425 1028.15 257.325C1026.51 256.215 1025.69 254.325 1025.69 251.545C1025.79 249.184 1026.13 246.839 1026.69 244.545C1027.14 242.217 1027.77 239.93 1028.59 237.705C1029.2 236.063 1030.14 234.567 1031.36 233.315C1032.62 232.093 1034.17 231.206 1035.86 230.735C1038.16 230.117 1040.53 229.834 1042.91 229.895C1047.11 229.895 1050.02 230.405 1051.65 231.445C1053.28 232.485 1054.09 234.345 1054.09 237.055C1053.95 239.981 1053.53 242.888 1052.84 245.735H1033.26C1032.87 247.32 1032.62 248.936 1032.5 250.565C1032.45 251.048 1032.53 251.535 1032.73 251.977C1032.93 252.419 1033.25 252.801 1033.64 253.085C1034.95 253.683 1036.38 253.935 1037.81 253.815C1039.55 253.909 1041.29 253.678 1042.94 253.135C1044.01 252.685 1044.76 251.525 1045.19 249.645L1051.99 249.595ZM1046.89 241.345C1047.16 240.167 1047.32 238.97 1047.38 237.765C1047.45 237.322 1047.38 236.869 1047.17 236.47C1046.97 236.072 1046.64 235.748 1046.24 235.545C1044.8 235.127 1043.29 234.962 1041.79 235.055C1040.59 235.029 1039.39 235.119 1038.21 235.325C1037.47 235.458 1036.78 235.786 1036.21 236.275C1035.69 236.783 1035.3 237.402 1035.05 238.085C1034.68 239.148 1034.39 240.237 1034.18 241.345H1046.89Z" fill="white"/>
<path d="M1077.32 237.925C1077.42 237.498 1077.48 237.063 1077.48 236.625C1077.48 235.625 1077.14 235.055 1076.48 234.835C1073.6 234.317 1070.65 234.409 1067.8 235.105C1066.8 235.505 1066.1 236.555 1065.74 238.255C1065.65 238.665 1065.59 239.084 1065.58 239.505C1065.56 239.845 1065.67 240.18 1065.88 240.448C1066.09 240.717 1066.39 240.9 1066.72 240.965C1068.37 241.28 1070.04 241.444 1071.72 241.455H1073.19C1074.92 241.525 1076.29 241.625 1077.28 241.725C1078.25 241.828 1079.19 242.077 1080.08 242.465C1080.93 242.826 1081.64 243.428 1082.14 244.195C1082.69 245.141 1082.95 246.224 1082.9 247.315C1082.89 248.375 1082.76 249.431 1082.52 250.465C1082.21 252.091 1081.53 253.621 1080.52 254.935C1079.63 256.048 1078.48 256.932 1077.18 257.515C1075.82 258.112 1074.37 258.496 1072.89 258.655C1071.08 258.848 1069.25 258.939 1067.42 258.925C1065.28 258.925 1063.6 258.925 1062.42 258.815C1061.29 258.763 1060.18 258.544 1059.11 258.165C1058.18 257.839 1057.38 257.222 1056.83 256.405C1056.25 255.414 1055.97 254.274 1056.02 253.125C1056.04 251.953 1056.19 250.787 1056.45 249.645H1063.29C1063.16 250.328 1063.09 251.02 1063.07 251.715C1063.01 252.132 1063.08 252.558 1063.28 252.932C1063.48 253.305 1063.78 253.607 1064.16 253.795C1065.55 254.189 1067 254.345 1068.44 254.255C1070.21 254.357 1071.99 254.147 1073.68 253.635C1074.68 253.215 1075.35 252.165 1075.68 250.465C1075.8 249.966 1075.88 249.457 1075.9 248.945C1075.9 248.55 1075.77 248.166 1075.53 247.852C1075.29 247.539 1074.95 247.311 1074.57 247.205C1072.9 246.739 1071.17 246.54 1069.44 246.615C1065.21 246.535 1062.32 246.162 1060.76 245.495C1060.01 245.172 1059.37 244.617 1058.96 243.91C1058.54 243.204 1058.35 242.382 1058.43 241.565C1058.48 240.283 1058.66 239.009 1058.97 237.765C1059.26 236.149 1059.91 234.62 1060.87 233.295C1061.7 232.224 1062.79 231.397 1064.05 230.905C1065.34 230.409 1066.68 230.099 1068.05 229.985C1069.48 229.855 1071.33 229.795 1073.61 229.795C1075.27 229.795 1076.67 229.795 1077.79 229.935C1078.89 230.019 1079.97 230.244 1081.01 230.605C1081.99 230.923 1082.85 231.53 1083.48 232.345C1084.14 233.277 1084.47 234.405 1084.4 235.545C1084.4 236.329 1084.31 237.11 1084.13 237.875L1077.32 237.925Z" fill="white"/>
<path d="M1088.44 230.165H1092.02L1093.38 223.715H1100.21L1098.86 230.165H1109.76L1108.62 235.375H1097.71L1094.61 249.965V250.075C1094.45 250.752 1094.34 251.441 1094.29 252.135C1094.27 252.372 1094.31 252.61 1094.4 252.829C1094.49 253.047 1094.64 253.238 1094.83 253.385C1095.41 253.692 1096.07 253.824 1096.73 253.765C1098.28 253.765 1099.34 253.345 1099.9 252.495C1100.59 251.275 1101.07 249.941 1101.29 248.555C1101.36 248.195 1101.41 247.925 1101.45 247.745H1107.45C1107.09 249.618 1106.55 251.453 1105.85 253.225C1105.35 254.486 1104.59 255.63 1103.63 256.585C1102.7 257.44 1101.58 258.064 1100.37 258.405C1098.82 258.818 1097.22 259.01 1095.62 258.975C1092.55 258.975 1090.39 258.612 1089.14 257.885C1087.89 257.165 1087.27 255.825 1087.27 253.885C1087.3 252.588 1087.47 251.298 1087.76 250.035L1090.85 235.385H1087.27L1088.44 230.165Z" fill="white"/>
<path d="M1115.35 258.645H1108.51L1114.59 230.165H1121.42L1115.35 258.645ZM1122.78 223.765H1115.94L1117.14 217.965H1123.97L1122.78 223.765Z" fill="white"/>
<path d="M1136.99 258.644H1126.71L1124.16 230.164H1131.16L1132.73 253.984H1132.9L1144.23 230.164H1151.4L1136.99 258.644Z" fill="white"/>
<path d="M1167.71 255.065H1167.55C1167.09 255.915 1166.45 256.656 1165.68 257.235C1164.96 257.776 1164.14 258.173 1163.26 258.405C1162.44 258.636 1161.59 258.79 1160.74 258.865C1159.93 258.935 1158.98 258.975 1157.89 258.975C1155.55 259.107 1153.21 258.69 1151.06 257.755C1149.54 256.945 1148.78 255.375 1148.78 253.065C1148.8 252.004 1148.92 250.948 1149.16 249.915C1149.88 246.628 1151.21 244.351 1153.16 243.085C1155.11 241.818 1157.93 241.185 1161.63 241.185C1163.27 241.119 1164.91 241.263 1166.51 241.615C1167.21 241.802 1167.86 242.144 1168.41 242.615C1168.94 243.106 1169.31 243.738 1169.49 244.435H1169.71L1170.47 240.745C1170.74 239.659 1170.9 238.551 1170.96 237.435C1171 236.991 1170.92 236.543 1170.73 236.143C1170.53 235.742 1170.23 235.403 1169.85 235.165C1168.56 234.622 1167.15 234.396 1165.75 234.505C1164.3 234.431 1162.86 234.684 1161.52 235.245C1160.97 235.595 1160.5 236.067 1160.15 236.625C1159.8 237.183 1159.59 237.812 1159.52 238.465H1152.71C1153.03 236.751 1153.71 235.125 1154.71 233.695C1155.51 232.569 1156.6 231.672 1157.85 231.095C1159.08 230.553 1160.39 230.215 1161.73 230.095C1163.39 229.934 1165.06 229.861 1166.73 229.875C1170.73 229.875 1173.59 230.298 1175.3 231.145C1177.01 231.991 1177.86 233.718 1177.85 236.325C1177.82 237.843 1177.64 239.354 1177.3 240.835L1173.51 258.675H1166.71L1167.71 255.065ZM1158.19 246.525C1157.13 246.975 1156.39 248.105 1156 249.915C1155.86 250.502 1155.79 251.102 1155.78 251.705C1155.72 252.14 1155.8 252.583 1156.02 252.966C1156.23 253.349 1156.57 253.651 1156.97 253.825C1158.38 254.224 1159.85 254.386 1161.31 254.305C1163 254.392 1164.68 254.115 1166.25 253.495C1167.37 252.955 1168.13 251.765 1168.53 249.915C1168.63 249.505 1168.69 249.086 1168.69 248.665C1168.76 248.18 1168.66 247.687 1168.42 247.264C1168.17 246.841 1167.79 246.514 1167.33 246.335C1165.96 245.945 1164.53 245.779 1163.1 245.845C1161.43 245.752 1159.76 245.972 1158.17 246.495L1158.19 246.525Z" fill="white"/>
<path d="M1187.17 258.645H1180.33L1188.96 217.965H1195.79L1187.17 258.645Z" fill="white"/>
<path d="M93.4699 33.6348C93.213 34.2257 93.0089 34.838 92.8599 35.4648C92.7787 35.7079 92.7568 35.9668 92.7958 36.2201C92.8348 36.4734 92.9338 36.7137 93.0844 36.9211C93.235 37.1284 93.433 37.2969 93.6618 37.4123C93.8906 37.5277 94.1436 37.5869 94.3999 37.5848C95.1138 37.6618 95.8323 37.6885 96.5499 37.6648H113.55C114.7 37.6604 115.848 37.7608 116.98 37.9648C122.59 38.9648 124.48 42.9148 125.16 46.5248C125.702 49.7233 125.469 53.0052 124.48 56.0948C124.05 57.5448 123.54 58.9648 123 60.3748C116.753 76.6682 110.497 92.9582 104.23 109.245C99.0166 122.785 93.8133 136.328 88.6199 149.875C83.7999 162.408 78.9632 174.935 74.1099 187.455C73.8999 187.985 73.6699 188.515 73.4499 189.045C73.1193 189.967 72.4996 190.757 71.6832 191.297C70.8669 191.838 69.8975 192.1 68.9199 192.045H68.0499H37.4299C36.5711 192.118 35.7062 192.03 34.8799 191.785C34.6831 191.747 34.4966 191.668 34.3334 191.551C34.1702 191.435 34.0341 191.285 33.9343 191.111C33.8346 190.937 33.7737 190.744 33.7556 190.544C33.7376 190.345 33.7629 190.144 33.8299 189.955C34.1311 188.996 34.509 188.063 34.9599 187.165C38.1299 180.715 41.3299 174.285 44.4899 167.835C52.0566 152.428 59.6199 137.015 67.1799 121.595C73.3799 108.928 79.5666 96.2815 85.7399 83.6548C89.1899 76.6548 92.6799 69.6548 96.1399 62.5848C96.4822 61.9448 96.7666 61.2754 96.9899 60.5848C97.2006 60.0367 97.1877 59.4278 96.9539 58.8892C96.7201 58.3505 96.2842 57.9252 95.7399 57.7048C94.572 57.1481 93.3231 56.7802 92.0399 56.6148C89.9699 56.3048 87.8899 56.2648 85.8099 56.1448C83.7287 56.0838 81.6601 55.7988 79.6399 55.2948C77.3271 54.7132 75.2047 53.5417 73.4799 51.8948C72.1047 50.5748 71.0815 48.9318 70.5034 47.1154C69.9253 45.299 69.8107 43.3669 70.1699 41.4948C70.4306 39.7109 71.0063 37.9874 71.8699 36.4048C75.5899 29.5948 79.0499 22.6448 83.1999 16.0748C84.6143 13.8223 86.1464 11.646 87.7899 9.55483C89.2958 7.62723 91.055 5.91174 93.0199 4.45482C96.6599 2.19482 97.1599 1.59483 101.54 0.624833C103.658 0.233734 105.806 0.0329269 107.96 0.0248272H245.71C246.808 -0.0631779 247.913 0.0833904 248.95 0.45482C249.356 0.633736 249.682 0.955681 249.867 1.35945C250.051 1.76322 250.081 2.22067 249.95 2.64482C249.812 3.20239 249.628 3.74758 249.4 4.27483C248.4 6.52483 247.48 8.76482 246.52 11.0148C246.38 11.3448 246.22 11.6648 246.07 12.0148C245.854 12.6283 245.445 13.1551 244.904 13.5158C244.363 13.8765 243.719 14.0516 243.07 14.0148H241.78H186.38C160.427 14.0148 134.48 13.9915 108.54 13.9448C107.32 13.9448 106.09 13.9448 104.87 13.9948C102.39 13.9948 100.05 15.9948 98.9699 19.1448" fill="white"/>
<path d="M178.849 113.663C177.322 113.666 175.82 114.049 174.479 114.779C173.138 115.509 172 116.562 171.169 117.843C170.869 118.29 170.579 118.74 170.299 119.193C163.799 129.363 157.399 139.603 150.549 149.543C146.099 155.993 141.489 162.333 136.429 168.323C129.794 176.411 121.474 182.954 112.049 187.493C107.605 189.541 102.856 190.848 97.9893 191.363C92.0393 192.053 86.8893 191.783 80.9293 191.773C80.4968 191.777 80.0658 191.72 79.6493 191.603C79.3381 191.504 79.0771 191.289 78.9207 191.002C78.7643 190.715 78.7244 190.379 78.8093 190.063C79.1465 188.861 79.5539 187.679 80.0293 186.523C80.7093 184.803 80.9293 184.523 81.5093 183.003C82.8393 179.553 83.5093 178.813 86.6393 178.813H96.4893C101.839 178.813 105.709 177.113 109.749 174.553C110.902 173.822 112.014 173.027 113.079 172.173C118.391 167.87 123.201 162.983 127.419 157.603C134.16 148.981 139.775 139.535 144.129 129.493C153.889 107.723 162.799 85.6035 171.769 63.4935C174.169 57.5735 176.609 51.6635 179.029 45.7435C179.569 44.3377 180.264 42.9962 181.099 41.7435C182.863 39.1653 185.486 37.2976 188.499 36.4735C190.506 35.9025 192.583 35.613 194.669 35.6135H234.119C235.339 35.6135 236.559 35.6135 237.779 35.6135C238.606 35.6048 239.416 35.3713 240.12 34.938C240.825 34.5046 241.398 33.8878 241.779 33.1535C242.12 32.5202 242.427 31.8692 242.699 31.2035C245.059 25.9635 247.419 20.7235 249.779 15.4835C251.269 12.2135 252.779 8.96345 254.309 5.70345C254.489 5.31345 254.669 4.92345 254.879 4.54345C255.355 3.56846 256.108 2.75537 257.044 2.2058C257.979 1.65623 259.056 1.39455 260.139 1.45345C266.899 1.51345 273.649 1.51345 280.409 1.51345C281.635 1.49773 282.853 1.69743 284.009 2.10345C284.502 2.22666 284.963 2.45225 285.363 2.7655C285.763 3.07874 286.093 3.47266 286.331 3.92162C286.568 4.37059 286.709 4.86455 286.743 5.37139C286.777 5.87824 286.704 6.38661 286.529 6.86346C286.174 8.11111 285.646 9.30275 284.959 10.4035L279.889 19.1735C274.229 28.9335 268.563 38.6868 262.889 48.4335C262.106 49.8149 261.245 51.1504 260.309 52.4335C256.699 57.2735 252.899 58.3835 245.689 58.3835C240.489 58.3835 240.689 58.3835 237.879 58.3835C226.949 58.3835 221.879 58.4734 210.929 58.5135C208.701 58.5086 206.482 58.7977 204.329 59.3735C200.624 60.3944 197.421 62.7392 195.329 65.9635C194.4 67.3306 193.632 68.8003 193.039 70.3435C191.269 74.9035 189.549 79.4735 187.819 84.0335C187.668 84.439 187.542 84.8531 187.439 85.2735C187.327 85.5629 187.289 85.8758 187.329 86.1836C187.368 86.4915 187.484 86.7845 187.666 87.036C187.848 87.2875 188.09 87.4895 188.37 87.6236C188.65 87.7576 188.959 87.8195 189.269 87.8035C189.983 87.8786 190.701 87.9086 191.419 87.8935H209.319H217.729C218.52 87.8427 219.313 87.9377 220.069 88.1735C220.689 88.4535 221.069 88.8735 220.819 89.5035C220.489 90.4535 220.099 91.3835 219.689 92.3035C218.209 95.5735 216.689 98.8335 215.229 102.113C214.089 104.663 213.009 107.253 211.899 109.823C211.689 110.358 211.452 110.882 211.189 111.393C210.843 112.07 210.32 112.64 209.675 113.043C209.031 113.447 208.289 113.668 207.529 113.683C206.959 113.683 206.379 113.683 205.809 113.683H192.219" fill="white"/>
</svg>
